<?xml version="1.0" standalone="no"?>
<!DOCTYPE svg PUBLIC "-//W3C//DTD SVG 20010904//EN"
 "http://www.w3.org/TR/2001/REC-SVG-20010904/DTD/svg10.dtd">
<svg version="1.0" xmlns="http://www.w3.org/2000/svg"
 width="400.000000pt" height="400.000000pt" viewBox="0 0 400.000000 400.000000"
 preserveAspectRatio="xMidYMid meet">
<metadata>
Created by potrace 1.14, written by Peter Selinger 2001-2017
</metadata>
<g transform="translate(0.000000,400.000000) scale(0.100000,-0.100000)"
fill="#000000" stroke="none">
<path d="M1419 3565 c-2 -1 -29 -6 -59 -10 -144 -17 -357 -83 -485 -151 -128
-67 -149 -81 -248 -155 -97 -73 -217 -189 -283 -273 -28 -36 -35 -40 -81 -41
-27 -1 -54 -5 -61 -9 -16 -10 -10 -122 6 -119 7 2 12 1 12 0 0 -2 -22 -48 -49
-103 -75 -150 -107 -245 -147 -434 -22 -103 -26 -417 -6 -520 7 -36 14 -77 17
-91 25 -132 110 -345 191 -480 220 -364 592 -635 994 -723 41 -9 86 -19 100
-23 43 -11 443 -13 495 -2 28 5 64 12 80 15 144 25 336 98 488 186 l68 39 75
-50 c123 -84 252 -140 392 -172 188 -42 469 -30 802 36 14 3 41 8 60 11 72 12
186 47 202 62 10 8 18 21 18 28 0 11 -115 74 -135 74 -4 0 -21 7 -38 15 -18 8
-97 39 -177 70 -80 31 -164 64 -186 72 l-42 17 -2 70 c-2 39 -3 86 -2 105 0
19 -4 43 -9 53 -7 14 -6 23 5 34 14 13 14 18 1 38 -17 25 -13 55 14 111 18 37
31 70 36 88 2 4 4 9 5 12 1 3 3 9 4 14 4 30 16 18 16 -15 0 -36 5 -44 51 -79
74 -56 129 -115 130 -139 4 -66 -31 -113 -75 -102 -26 6 -36 38 -16 51 6 3 10
-1 10 -9 0 -20 16 -21 24 -1 5 14 -18 45 -34 45 -17 0 -40 -32 -40 -54 0 -32
30 -56 71 -56 27 0 44 9 78 42 42 41 43 44 38 93 -3 27 -15 82 -27 120 -12 39
-28 95 -36 125 -26 96 -75 235 -87 247 -10 10 -56 21 -192 48 -16 3 -52 8 -78
12 l-48 6 -89 -94 -88 -94 18 55 c38 113 54 238 54 425 1 201 -4 248 -45 409
-41 161 -116 326 -224 491 l-53 80 0 245 c0 135 -1 251 -1 259 -1 11 -20 12
-97 7 -52 -3 -99 -8 -103 -10 -4 -3 -7 -66 -6 -140 0 -93 -3 -136 -10 -136 -6
0 -24 13 -40 30 -28 29 -29 34 -29 130 -1 55 -3 101 -6 102 -3 1 -49 -4 -102
-12 -89 -12 -97 -15 -100 -37 l-3 -23 -50 25 c-124 63 -320 126 -470 150 -44
8 -390 16 -396 10z"/>
</g>
</svg>
